# xmcd
#
# Track frame offsets: 
#        150
#        11146
#        23135
#        32705
#        43897
#        54292
#        66557
#        77301
#        88713
#        100236
#        110034
#        120204
#        131117
#        144375
#        155418
#        164163
#        174333
#        186745
#        197854
#        208264
#
# Disc length: 2894 seconds
#
# Revision: 0
# Processed by: cddbd v1.5.2PL0 Copyright (c) Steve Scherf et al.
# Submitted via: ExactAudioCopy v1.0b3
#
DISCID=230b4c14
DTITLE=Various Artist - Country and Western Greatest Love Songs - 200 O
DTITLE=riginal Recordings [CD 10,10)
DYEAR=1960
DGENRE=Country
TTITLE0=Hank Snow - Let Me Go Lover
TTITLE1=Marty Robbins - I'll Go On Alone
TTITLE2=Betty Foley - Old Moon
TTITLE3=Jim Reeves - Anna Marie
TTITLE4=George Jones - Treasure Of Love
TTITLE5=Hank Williams - Cold, Cold Heart
TTITLE6=Johnny Cash - Train Of Love
TTITLE7=James O'Gwynn - Talk To Me Lonesome Heart
TTITLE8=George Morgan - I'm In Love Again
TTITLE9=Don Gibson - Far Far Away
TTITLE10=Kenny Rogers - That Crazy Feeling
TTITLE11=Charlie Walker - Pick Me Up On Your Way Down
TTITLE12=Ray Price - City Lights
TTITLE13=Everly Brothers - Take A Message To Mary
TTITLE14=Faron Young - Alone With You
TTITLE15=Skeeter Davis - Set Him Free
TTITLE16=Hank Snow - Yellow Roses
TTITLE17=Jim Reeves - My Happyness
TTITLE18=Johnny Cash - There You Go
TTITLE19=Sonny James - You're The Reason I'm In Love
EXTD=
EXTT0=
EXTT1=
EXTT2=
EXTT3=
EXTT4=
EXTT5=
EXTT6=
EXTT7=
EXTT8=
EXTT9=
EXTT10=
EXTT11=
EXTT12=
EXTT13=
EXTT14=
EXTT15=
EXTT16=
EXTT17=
EXTT18=
EXTT19=
PLAYORDER=
